# xmcd
#
# Track frame offsets:
#	150
#	13023
#	23832
#	34179
#	45819
#	57878
#	68613
#	81400
#	93095
#	104847
#	116785
#	127765
#	138000
#	147727
#	157994
#	171075
#	184611
#	195463
#	208079
#	219094
#	230649
#	240850
#	252617
#	264803
#	277725
#
# Disc length: 3840 seconds
#
# Revision: 1
# Processed by: cddbd v1.5.1PL0 Copyright (c) Steve Scherf et al.
# Submitted via: audiograbber 1.83.01
#
DISCID=4d0efe19
DTITLE=Otis Williams and his Charms - Ivory Tower: The Very Best of
DYEAR=1900
DGENRE=Oldies
TTITLE0=Heaven Only Knows
TTITLE1=Happy Are We
TTITLE2=Bye Bye Baby
TTITLE3=Please Believe In Me
TTITLE4=My Baby Dearest Darling
TTITLE5=Who Knows
TTITLE6=The First Time We Met
TTITLE7=Hearts of Stone
TTITLE8=Two Hearts
TTITLE9=When We Get Married
TTITLE10=Bazoom (I Need Your Lovin')
TTITLE11=Ling Ting Tong
TTITLE12=That's Your Mistake
TTITLE13=Ivory Tower
TTITLE14=I'd Like To Thank You, Mr. D. J.
TTITLE15=Blues Stay Away From Me
TTITLE16=Wakin' After Midnight
TTITLE17=One Kind Word From You
TTITLE18=Dynamite Darling
TTITLE19=United
TTITLE20=Could This Be Magic
TTITLE21=The First Sign of Love
TTITLE22=Don't Wake Up The Kids
TTITLE23=My Prayer Tonight
TTITLE24=Silver Star
EXTD=
EXTT0=
EXTT1=
EXTT2=
EXTT3=
EXTT4=
EXTT5=
EXTT6=
EXTT7=
EXTT8=
EXTT9=
EXTT10=
EXTT11=
EXTT12=
EXTT13=
EXTT14=
EXTT15=
EXTT16=
EXTT17=
EXTT18=
EXTT19=
EXTT20=
EXTT21=
EXTT22=
EXTT23=
EXTT24=
PLAYORDER=
